# xmcd CD database file
#
# Track frame offsets:
#	150
#	16717
#	32122
#	54681
#	79908
#	99277
#	117811
#	138580
#	154121
#	170912
#	188164
#	206390
#	220792
#	249267
#	257856
#	273329
#	288461
#
# Disc length: 3938 seconds
#
# Revision: 1
# Processed by: cddbd v1.5.1PL0 Copyright (c) Steve Scherf et al.
# Submitted via: CDex 1.51
#
DISCID=ef0f6011
DTITLE=大江戸宅急便 - くりねっくす
DYEAR=2002
DGENRE=Game
TTITLE0=瑠璃子〜BEAT MIX〜
TTITLE1=Lonly call 2001 MAXIMUM!!
TTITLE2=Same Mind
TTITLE3=鳥の歌 UI EDITION
TTITLE4=FALL 〜手のひらの一滴〜
TTITLE5=鬼神楽 88EDITION
TTITLE6=Dance into the Night
TTITLE7=AQUA memories
TTITLE8=a PLAYER
TTITLE9=ALIVE
TTITLE10=Psycho Impact
TTITLE11=RED ZONE
TTITLE12=THE WALL
TTITLE13=FILS Nown R size MIX
TTITLE14=onikagura -drum'n-
TTITLE15=ThRilLing 〜Crash MIX〜
TTITLE16=そのままの君で-TK4の唄-
EXTD=YEAR: 2002
EXTT0=
EXTT1=
EXTT2=
EXTT3=
EXTT4=
EXTT5=
EXTT6=
EXTT7=
EXTT8=
EXTT9=
EXTT10=
EXTT11=
EXTT12=
EXTT13=
EXTT14=
EXTT15=
EXTT16=
PLAYORDER=
